<svg xmlns="http://www.w3.org/2000/svg" xmlns:xlink="http://www.w3.org/1999/xlink" width="1366" zoomAndPan="magnify" viewBox="0 0 1024.5 576" height="768" preserveAspectRatio="xMidYMid meet" version="1.0"><defs><g/><clipPath id="2a0410d1a6"><path d="M 0 0.140625 L 1024 0.140625 L 1024 575.859375 L 0 575.859375 Z M 0 0.140625 " clip-rule="nonzero"/></clipPath></defs><g clip-path="url(#2a0410d1a6)"><path fill="#ffffff" d="M 0 0.140625 L 1024 0.140625 L 1024 575.859375 L 0 575.859375 Z M 0 0.140625 " fill-opacity="1" fill-rule="nonzero"/><path fill="#000000" d="M 0 0.140625 L 1024 0.140625 L 1024 575.859375 L 0 575.859375 Z M 0 0.140625 " fill-opacity="1" fill-rule="nonzero"/></g><g fill="#000000" fill-opacity="1"><g transform="translate(399.758761, 296.767254)"><g><path d="M 8.296875 -27.59375 L 8.296875 0 L 2 0 L 2 -27.59375 Z M 8.296875 -27.59375 "/></g></g></g><g fill="#ffffff" fill-opacity="1"><g transform="translate(410.06412, 296.767254)"><g><path d="M 8.296875 -27.59375 L 8.296875 0 L 2 0 L 2 -27.59375 Z M 8.296875 -27.59375 "/></g></g></g><g fill="#ffffff" fill-opacity="1"><g transform="translate(420.3683, 296.767254)"><g><path d="M 2 0 L 2 -17.15625 L 7.921875 -17.15625 L 7.921875 -15.359375 L 8 -15.359375 C 9.53125 -16.890625 11.164062 -17.65625 12.90625 -17.65625 C 13.757812 -17.65625 14.601562 -17.546875 15.4375 -17.328125 C 16.269531 -17.109375 17.070312 -16.765625 17.84375 -16.296875 C 18.613281 -15.828125 19.238281 -15.160156 19.71875 -14.296875 C 20.195312 -13.441406 20.4375 -12.445312 20.4375 -11.3125 L 20.4375 0 L 14.515625 0 L 14.515625 -9.703125 C 14.515625 -10.597656 14.226562 -11.378906 13.65625 -12.046875 C 13.09375 -12.710938 12.351562 -13.046875 11.4375 -13.046875 C 10.550781 -13.046875 9.742188 -12.695312 9.015625 -12 C 8.285156 -11.3125 7.921875 -10.546875 7.921875 -9.703125 L 7.921875 0 Z M 2 0 "/></g></g></g><g fill="#ffffff" fill-opacity="1"><g transform="translate(442.482137, 296.767254)"><g><path d="M 3.015625 -17.15625 L 3.015625 -23.546875 L 8.9375 -23.546875 L 8.9375 -17.15625 L 12.546875 -17.15625 L 12.546875 -12.640625 L 8.9375 -12.640625 L 8.9375 -7.1875 C 8.9375 -5.601562 9.378906 -4.8125 10.265625 -4.8125 C 10.492188 -4.8125 10.726562 -4.851562 10.96875 -4.9375 C 11.21875 -5.03125 11.410156 -5.125 11.546875 -5.21875 L 11.734375 -5.359375 L 13.21875 -0.5625 C 11.945312 0.144531 10.492188 0.5 8.859375 0.5 C 7.742188 0.5 6.785156 0.304688 5.984375 -0.078125 C 5.179688 -0.472656 4.570312 -1 4.15625 -1.65625 C 3.75 -2.3125 3.457031 -3 3.28125 -3.71875 C 3.101562 -4.445312 3.015625 -5.226562 3.015625 -6.0625 L 3.015625 -12.640625 L 0.53125 -12.640625 L 0.53125 -17.15625 Z M 3.015625 -17.15625 "/></g></g></g><g fill="#ffffff" fill-opacity="1"><g transform="translate(455.696914, 296.767254)"><g><path d="M 19.375 -7.765625 L 6.921875 -7.765625 C 6.921875 -6.554688 7.3125 -5.660156 8.09375 -5.078125 C 8.875 -4.503906 9.722656 -4.21875 10.640625 -4.21875 C 11.597656 -4.21875 12.351562 -4.34375 12.90625 -4.59375 C 13.46875 -4.851562 14.101562 -5.363281 14.8125 -6.125 L 19.109375 -3.984375 C 17.316406 -0.992188 14.347656 0.5 10.203125 0.5 C 7.617188 0.5 5.398438 -0.382812 3.546875 -2.15625 C 1.691406 -3.925781 0.765625 -6.0625 0.765625 -8.5625 C 0.765625 -11.0625 1.691406 -13.203125 3.546875 -14.984375 C 5.398438 -16.765625 7.617188 -17.65625 10.203125 -17.65625 C 12.921875 -17.65625 15.132812 -16.867188 16.84375 -15.296875 C 18.550781 -13.734375 19.40625 -11.488281 19.40625 -8.5625 C 19.40625 -8.164062 19.394531 -7.898438 19.375 -7.765625 Z M 7.09375 -11.046875 L 13.609375 -11.046875 C 13.484375 -11.929688 13.132812 -12.613281 12.5625 -13.09375 C 11.988281 -13.570312 11.257812 -13.8125 10.375 -13.8125 C 9.394531 -13.8125 8.613281 -13.554688 8.03125 -13.046875 C 7.445312 -12.535156 7.132812 -11.867188 7.09375 -11.046875 Z M 7.09375 -11.046875 "/></g></g></g><g fill="#ffffff" fill-opacity="1"><g transform="translate(475.870353, 296.767254)"><g><path d="M 2 0 L 2 -28.765625 L 7.921875 -28.765625 L 7.921875 0 Z M 2 0 "/></g></g></g><g fill="#ffffff" fill-opacity="1"><g transform="translate(485.806522, 296.767254)"><g><path d="M 2 0 L 2 -28.765625 L 7.921875 -28.765625 L 7.921875 0 Z M 2 0 "/></g></g></g><g fill="#ffffff" fill-opacity="1"><g transform="translate(495.742692, 296.767254)"><g><path d="M 2.5625 -26.71875 C 3.257812 -27.414062 4.085938 -27.765625 5.046875 -27.765625 C 6.003906 -27.765625 6.828125 -27.414062 7.515625 -26.71875 C 8.210938 -26.03125 8.5625 -25.207031 8.5625 -24.25 C 8.5625 -23.289062 8.210938 -22.460938 7.515625 -21.765625 C 6.828125 -21.078125 6.003906 -20.734375 5.046875 -20.734375 C 4.085938 -20.734375 3.257812 -21.078125 2.5625 -21.765625 C 1.875 -22.460938 1.53125 -23.289062 1.53125 -24.25 C 1.53125 -25.207031 1.875 -26.03125 2.5625 -26.71875 Z M 2 -17.15625 L 2 0 L 7.921875 0 L 7.921875 -17.15625 Z M 2 -17.15625 "/></g></g></g><g fill="#ffffff" fill-opacity="1"><g transform="translate(505.846142, 296.767254)"><g><path d="M 9.46875 -17.65625 C 10.445312 -17.65625 11.414062 -17.546875 12.375 -17.328125 C 13.332031 -17.109375 14.046875 -16.882812 14.515625 -16.65625 L 15.21875 -16.328125 L 13.28125 -12.4375 C 11.945312 -13.15625 10.675781 -13.515625 9.46875 -13.515625 C 8.800781 -13.515625 8.328125 -13.441406 8.046875 -13.296875 C 7.765625 -13.148438 7.625 -12.878906 7.625 -12.484375 C 7.625 -12.390625 7.632812 -12.296875 7.65625 -12.203125 C 7.675781 -12.117188 7.71875 -12.035156 7.78125 -11.953125 C 7.851562 -11.878906 7.914062 -11.8125 7.96875 -11.75 C 8.03125 -11.695312 8.128906 -11.632812 8.265625 -11.5625 C 8.398438 -11.5 8.503906 -11.453125 8.578125 -11.421875 C 8.660156 -11.390625 8.789062 -11.335938 8.96875 -11.265625 C 9.144531 -11.203125 9.273438 -11.15625 9.359375 -11.125 C 9.453125 -11.09375 9.601562 -11.039062 9.8125 -10.96875 C 10.03125 -10.90625 10.191406 -10.863281 10.296875 -10.84375 C 10.992188 -10.632812 11.597656 -10.40625 12.109375 -10.15625 C 12.617188 -9.914062 13.15625 -9.582031 13.71875 -9.15625 C 14.289062 -8.738281 14.734375 -8.207031 15.046875 -7.5625 C 15.359375 -6.914062 15.515625 -6.179688 15.515625 -5.359375 C 15.515625 -1.453125 12.804688 0.5 7.390625 0.5 C 6.160156 0.5 4.992188 0.3125 3.890625 -0.0625 C 2.785156 -0.445312 1.988281 -0.828125 1.5 -1.203125 L 0.765625 -1.8125 L 3.171875 -5.859375 C 3.359375 -5.703125 3.59375 -5.515625 3.875 -5.296875 C 4.164062 -5.085938 4.691406 -4.796875 5.453125 -4.421875 C 6.210938 -4.054688 6.867188 -3.875 7.421875 -3.875 C 8.648438 -3.875 9.265625 -4.289062 9.265625 -5.125 C 9.265625 -5.5 9.109375 -5.789062 8.796875 -6 C 8.484375 -6.21875 7.953125 -6.457031 7.203125 -6.71875 C 6.460938 -6.988281 5.878906 -7.234375 5.453125 -7.453125 C 4.378906 -8.015625 3.53125 -8.644531 2.90625 -9.34375 C 2.28125 -10.050781 1.96875 -10.984375 1.96875 -12.140625 C 1.96875 -13.878906 2.640625 -15.234375 3.984375 -16.203125 C 5.335938 -17.171875 7.164062 -17.65625 9.46875 -17.65625 Z M 9.46875 -17.65625 "/></g></g></g><g fill="#ffffff" fill-opacity="1"><g transform="translate(522.306065, 296.767254)"><g><path d="M 19.671875 -15.03125 C 21.273438 -13.28125 22.078125 -11.132812 22.078125 -8.59375 C 22.078125 -6.050781 21.273438 -3.898438 19.671875 -2.140625 C 18.066406 -0.378906 16.023438 0.5 13.546875 0.5 C 11.273438 0.5 9.398438 -0.210938 7.921875 -1.640625 L 7.921875 8.703125 L 2 8.703125 L 2 -17.15625 L 7.859375 -17.15625 L 7.859375 -15.21875 L 7.921875 -15.21875 C 9.398438 -16.84375 11.273438 -17.65625 13.546875 -17.65625 C 16.023438 -17.65625 18.066406 -16.78125 19.671875 -15.03125 Z M 14.640625 -5.6875 C 15.410156 -6.445312 15.796875 -7.414062 15.796875 -8.59375 C 15.796875 -9.78125 15.425781 -10.742188 14.6875 -11.484375 C 13.945312 -12.234375 12.976562 -12.609375 11.78125 -12.609375 C 10.613281 -12.609375 9.65625 -12.226562 8.90625 -11.46875 C 8.164062 -10.71875 7.796875 -9.757812 7.796875 -8.59375 C 7.796875 -7.414062 8.179688 -6.445312 8.953125 -5.6875 C 9.722656 -4.925781 10.664062 -4.546875 11.78125 -4.546875 C 12.914062 -4.546875 13.867188 -4.925781 14.640625 -5.6875 Z M 14.640625 -5.6875 "/></g></g></g><g fill="#ffffff" fill-opacity="1"><g transform="translate(545.155911, 296.767254)"><g><path d="M 2 0 L 2 -28.765625 L 7.921875 -28.765625 L 7.921875 -15.359375 L 8 -15.359375 C 9.53125 -16.890625 11.164062 -17.65625 12.90625 -17.65625 C 13.757812 -17.65625 14.601562 -17.546875 15.4375 -17.328125 C 16.269531 -17.109375 17.070312 -16.765625 17.84375 -16.296875 C 18.613281 -15.828125 19.238281 -15.160156 19.71875 -14.296875 C 20.195312 -13.441406 20.4375 -12.445312 20.4375 -11.3125 L 20.4375 0 L 14.515625 0 L 14.515625 -9.703125 C 14.515625 -10.597656 14.226562 -11.378906 13.65625 -12.046875 C 13.09375 -12.710938 12.351562 -13.046875 11.4375 -13.046875 C 10.550781 -13.046875 9.742188 -12.695312 9.015625 -12 C 8.285156 -11.3125 7.921875 -10.546875 7.921875 -9.703125 L 7.921875 0 Z M 2 0 "/></g></g></g><g fill="#ffffff" fill-opacity="1"><g transform="translate(567.269748, 296.767254)"><g><path d="M 19.375 -7.765625 L 6.921875 -7.765625 C 6.921875 -6.554688 7.3125 -5.660156 8.09375 -5.078125 C 8.875 -4.503906 9.722656 -4.21875 10.640625 -4.21875 C 11.597656 -4.21875 12.351562 -4.34375 12.90625 -4.59375 C 13.46875 -4.851562 14.101562 -5.363281 14.8125 -6.125 L 19.109375 -3.984375 C 17.316406 -0.992188 14.347656 0.5 10.203125 0.5 C 7.617188 0.5 5.398438 -0.382812 3.546875 -2.15625 C 1.691406 -3.925781 0.765625 -6.0625 0.765625 -8.5625 C 0.765625 -11.0625 1.691406 -13.203125 3.546875 -14.984375 C 5.398438 -16.765625 7.617188 -17.65625 10.203125 -17.65625 C 12.921875 -17.65625 15.132812 -16.867188 16.84375 -15.296875 C 18.550781 -13.734375 19.40625 -11.488281 19.40625 -8.5625 C 19.40625 -8.164062 19.394531 -7.898438 19.375 -7.765625 Z M 7.09375 -11.046875 L 13.609375 -11.046875 C 13.484375 -11.929688 13.132812 -12.613281 12.5625 -13.09375 C 11.988281 -13.570312 11.257812 -13.8125 10.375 -13.8125 C 9.394531 -13.8125 8.613281 -13.554688 8.03125 -13.046875 C 7.445312 -12.535156 7.132812 -11.867188 7.09375 -11.046875 Z M 7.09375 -11.046875 "/></g></g></g><g fill="#ffffff" fill-opacity="1"><g transform="translate(587.443187, 296.767254)"><g><path d="M 2 0 L 2 -17.15625 L 7.921875 -17.15625 L 7.921875 -14.6875 L 8 -14.6875 C 8.039062 -14.769531 8.109375 -14.878906 8.203125 -15.015625 C 8.304688 -15.148438 8.523438 -15.382812 8.859375 -15.71875 C 9.191406 -16.050781 9.546875 -16.351562 9.921875 -16.625 C 10.304688 -16.894531 10.800781 -17.132812 11.40625 -17.34375 C 12.007812 -17.550781 12.625 -17.65625 13.25 -17.65625 C 13.894531 -17.65625 14.53125 -17.566406 15.15625 -17.390625 C 15.78125 -17.210938 16.238281 -17.035156 16.53125 -16.859375 L 17 -16.59375 L 14.515625 -11.578125 C 13.785156 -12.203125 12.757812 -12.515625 11.4375 -12.515625 C 10.726562 -12.515625 10.113281 -12.359375 9.59375 -12.046875 C 9.082031 -11.734375 8.722656 -11.351562 8.515625 -10.90625 C 8.304688 -10.457031 8.15625 -10.078125 8.0625 -9.765625 C 7.96875 -9.453125 7.921875 -9.207031 7.921875 -9.03125 L 7.921875 0 Z M 2 0 "/></g></g></g><g fill="#ffffff" fill-opacity="1"><g transform="translate(604.10384, 296.767254)"><g><path d="M 19.375 -7.765625 L 6.921875 -7.765625 C 6.921875 -6.554688 7.3125 -5.660156 8.09375 -5.078125 C 8.875 -4.503906 9.722656 -4.21875 10.640625 -4.21875 C 11.597656 -4.21875 12.351562 -4.34375 12.90625 -4.59375 C 13.46875 -4.851562 14.101562 -5.363281 14.8125 -6.125 L 19.109375 -3.984375 C 17.316406 -0.992188 14.347656 0.5 10.203125 0.5 C 7.617188 0.5 5.398438 -0.382812 3.546875 -2.15625 C 1.691406 -3.925781 0.765625 -6.0625 0.765625 -8.5625 C 0.765625 -11.0625 1.691406 -13.203125 3.546875 -14.984375 C 5.398438 -16.765625 7.617188 -17.65625 10.203125 -17.65625 C 12.921875 -17.65625 15.132812 -16.867188 16.84375 -15.296875 C 18.550781 -13.734375 19.40625 -11.488281 19.40625 -8.5625 C 19.40625 -8.164062 19.394531 -7.898438 19.375 -7.765625 Z M 7.09375 -11.046875 L 13.609375 -11.046875 C 13.484375 -11.929688 13.132812 -12.613281 12.5625 -13.09375 C 11.988281 -13.570312 11.257812 -13.8125 10.375 -13.8125 C 9.394531 -13.8125 8.613281 -13.554688 8.03125 -13.046875 C 7.445312 -12.535156 7.132812 -11.867188 7.09375 -11.046875 Z M 7.09375 -11.046875 "/></g></g></g></svg>